<?xml version="1.0"?>
<svg version="1.1" xmlns="http://www.w3.org/2000/svg" viewBox="0 0 20 20">
	<path id="add_user" d="M15.989,19.129C16,17,13.803,15.74,11.672,14.822c-2.123-0.914-2.801-1.684-2.801-3.334c0-0.989,0.648-0.667,0.932-2.481
		c0.12-0.752,0.692-0.012,0.802-1.729c0-0.684-0.313-0.854-0.313-0.854s0.159-1.013,0.221-1.793c0.064-0.817-0.398-2.56-2.301-3.095
		C7.88,1.195,7.655,0.654,8.679,0.112c-2.24-0.104-2.761,1.068-3.954,1.93c-1.015,0.756-1.289,1.953-1.24,2.59
		c0.065,0.78,0.223,1.793,0.223,1.793s-0.314,0.17-0.314,0.854c0.11,1.718,0.684,0.977,0.803,1.729
		C4.481,10.822,5.13,10.5,5.13,11.489c0,1.65-0.212,2.21-2.336,3.124C0.663,15.53,0,17,0.011,19.129C0.014,19.766,0,20,0,20h16
		C16,20,15.986,19.766,15.989,19.129z M17,10V7h-2v3h-3v2h3v3h2v-3h3v-2H17z"/>
	<path id="chat" d="M5.8,12.2V6H2C0.9,6,0,6.9,0,8v6c0,1.1,0.9,2,2,2h1v3l3-3h5c1.1,0,2-0.9,2-2v-1.82c-0.064,0.014-0.132,0.021-0.2,0.021h-7
		V12.2z M18,1H9C7.9,1,7,1.9,7,3v8h7l3,3v-3h1c1.1,0,2-0.899,2-2V3C20,1.9,19.1,1,18,1z"/>
	<path id="check" d="M8.294,16.998c-0.435,0-0.847-0.203-1.111-0.553L3.61,11.724c-0.465-0.613-0.344-1.486,0.27-1.951
		c0.615-0.467,1.488-0.344,1.953,0.27l2.351,3.104l5.911-9.492c0.407-0.652,1.267-0.852,1.921-0.445
		c0.653,0.406,0.854,1.266,0.446,1.92L9.478,16.34c-0.242,0.391-0.661,0.635-1.12,0.656C8.336,16.998,8.316,16.998,8.294,16.998z"/>
	<path id="first" d="M14.959,4.571L7.756,9.52c0,0-0.279,0.201-0.279,0.481s0.279,0.479,0.279,0.479l7.203,4.951
		C15.531,15.811,16,15.53,16,14.805V5.196C16,4.469,15.531,4.188,14.959,4.571z M6,4H5C4.447,4,4,4.048,4,4.6V15.4
		C4,15.952,4.447,16,5,16h1c0.553,0,1-0.048,1-0.6V4.6C7,4.048,6.553,4,6,4z"/>
	<path id="prev" d="M14,5v10l-9-5L14,5z"/>
	<path id="next" d="M15,10l-9,5V5L15,10z"/>
	<path id="last" d="M12.244,9.52L5.041,4.571C4.469,4.188,4,4.469,4,5.196v9.609c0,0.725,0.469,1.006,1.041,0.625l7.203-4.951
		c0,0,0.279-0.199,0.279-0.478C12.523,9.721,12.244,9.52,12.244,9.52z M14,4h1c0.553,0,1,0.048,1,0.6V15.4c0,0.552-0.447,0.6-1,0.6
		h-1c-0.553,0-1-0.048-1-0.6V4.6C13,4.048,13.447,4,14,4z"/>
	<path id="emoji_sad" d="M10.001,0.4C4.698,0.4,0.4,4.698,0.4,10c0,5.303,4.298,9.601,9.601,9.601c5.301,0,9.6-4.298,9.6-9.601
		C19.6,4.698,15.301,0.4,10.001,0.4z M10,17.599c-4.197,0-7.6-3.402-7.6-7.6c0-4.197,3.402-7.6,7.6-7.6c4.197,0,7.6,3.402,7.6,7.6
		C17.6,14.197,14.197,17.599,10,17.599z M12.501,9.75c0.828,0,1.5-0.783,1.5-1.75s-0.672-1.75-1.5-1.75c-0.828,0-1.5,0.783-1.5,1.75
		S11.672,9.75,12.501,9.75z M7.501,9.75c0.828,0,1.5-0.783,1.5-1.75s-0.672-1.75-1.5-1.75c-0.828,0-1.5,0.783-1.5,1.75
		S6.672,9.75,7.501,9.75z M10.002,11.25c-3.424,0-4.622,2.315-4.672,2.414c-0.186,0.371-0.035,0.821,0.335,1.007
		C5.773,14.724,5.887,14.75,6,14.75c0.275,0,0.54-0.151,0.672-0.414c0.008-0.017,0.822-1.586,3.33-1.586
		c2.463,0,3.298,1.527,3.328,1.585c0.184,0.37,0.635,0.523,1.006,0.336c0.371-0.184,0.521-0.636,0.336-1.006
		C14.623,13.566,13.426,11.25,10.002,11.25z"/>
	<path id="funnel" d="M10,1C5.092,1,2,2.512,2,4.001v2c0,0.918,6,6,6,6v6c-0.001,0.684,1,1,2,1s2.001-0.316,2-1v-6c0,0,6-5.082,6-6v-2
		C18,2.512,14.908,1,10,1z M10,6.123C6.409,6.122,3.862,4.79,3.862,4.292C3.86,3.797,6.41,2.461,10,2.463
		c3.59-0.002,6.14,1.334,6.138,1.828C16.138,4.79,13.591,6.122,10,6.123z"/>
	<path id="report" d="M 13.0959,2.5299998 H 6.9041 L 2.53,6.9040998 V 13.0959 L 6.9041,17.47 h 6.1918 L 17.47,13.0959
		V 6.9040998 l -4.3741,-4.3741 z M 10,14.399 c -0.5976,0 -1.079,-0.4814 -1.079,-1.079 0,-0.5976 0.4814,-1.079 1.079,-1.079
		0.5976,0 1.079,0.4814 1.079,1.079 0,0.5976 -0.4814,1.079 -1.079,1.079 z M 10.83,10.83 H 9.17 V 5.8499998 h 1.66 V 10.83 z"/>
	<path id="menu" d="M16.4,9H3.6C3.048,9,3,9.447,3,10c0,0.553,0.048,1,0.6,1H16.4c0.552,0,0.6-0.447,0.6-1C17,9.447,16.952,9,16.4,9z M16.4,13
		H3.6C3.048,13,3,13.447,3,14c0,0.553,0.048,1,0.6,1H16.4c0.552,0,0.6-0.447,0.6-1C17,13.447,16.952,13,16.4,13z M3.6,7H16.4
		C16.952,7,17,6.553,17,6c0-0.553-0.048-1-0.6-1H3.6C3.048,5,3,5.447,3,6C3,6.553,3.048,7,3.6,7z"/>
	<path id="trash" d="M3.389,7.113L4.49,18.021C4.551,18.482,6.777,19.998,10,20c3.225-0.002,5.451-1.518,5.511-1.979l1.102-10.908
		C14.929,8.055,12.412,8.5,10,8.5C7.59,8.5,5.072,8.055,3.389,7.113z M13.168,1.51l-0.859-0.951C11.977,0.086,11.617,0,10.916,0
		H9.085c-0.7,0-1.061,0.086-1.392,0.559L6.834,1.51C4.264,1.959,2.4,3.15,2.4,4.029v0.17C2.4,5.746,5.803,7,10,7
		c4.198,0,7.601-1.254,7.601-2.801v-0.17C17.601,3.15,15.738,1.959,13.168,1.51z M12.07,4.34L11,3H9L7.932,4.34h-1.7
		c0,0,1.862-2.221,2.111-2.522C8.533,1.588,8.727,1.5,8.979,1.5h2.043c0.253,0,0.447,0.088,0.637,0.318
		c0.248,0.301,2.111,2.522,2.111,2.522H12.07z"/>
	<path id="send" d="M18.64,2.634C18.296,2.755,1.319,8.738,0.984,8.856c-0.284,0.1-0.347,0.345-0.01,0.479c0.401,0.161,3.796,1.521,3.796,1.521
		l0,0l2.25,0.901c0,0,10.838-7.958,10.984-8.066c0.148-0.108,0.318,0.095,0.211,0.211c-0.107,0.117-7.871,8.513-7.871,8.513v0.002
		L9.892,12.92l0.599,0.322l0,0c0,0,4.65,2.504,4.982,2.682c0.291,0.156,0.668,0.027,0.752-0.334
		c0.099-0.426,2.845-12.261,2.906-12.525C19.21,2.722,18.983,2.513,18.64,2.634z M7,17.162c0,0.246,0.139,0.315,0.331,0.141
		c0.251-0.229,2.85-2.561,2.85-2.561L7,13.098V17.162z"/>
</svg>
